<?xml version="1.0" encoding="UTF-8" standalone="no" ?>
<!DOCTYPE svg PUBLIC "-//W3C//DTD SVG 1.1//EN" "http://www.w3.org/Graphics/SVG/1.1/DTD/svg11.dtd">
<svg xmlns="http://www.w3.org/2000/svg" xmlns:xlink="http://www.w3.org/1999/xlink" version="1.1" width="1080" height="1080" viewBox="0 0 1080 1080" xml:space="preserve">
<desc>Created with Fabric.js 5.2.4</desc>
<defs>
</defs>
<g transform="matrix(1 0 0 1 540 540)" id="8aa93592-3262-4771-8717-6bfb51c8c8d6"  >
<rect style="stroke: none; stroke-width: 1; stroke-dasharray: none; stroke-linecap: butt; stroke-dashoffset: 0; stroke-linejoin: miter; stroke-miterlimit: 4; fill: rgb(255,255,255); fill-rule: nonzero; opacity: 1; visibility: hidden;" vector-effect="non-scaling-stroke"  x="-540" y="-540" rx="0" ry="0" width="1080" height="1080" />
</g>
<g transform="matrix(1 0 0 1 540 540)" id="bf0c1f1c-e937-4e3b-b7c1-0cc5c494332b"  >
</g>
<g transform="matrix(1.6 0 0 1.9 540 540)"  >
<g style="" vector-effect="non-scaling-stroke"   >
		<g transform="matrix(1 0 0 1 0 0)"  >
<path style="stroke: none; stroke-width: 1; stroke-dasharray: none; stroke-linecap: butt; stroke-dashoffset: 0; stroke-linejoin: miter; stroke-miterlimit: 4; fill: rgb(254,254,254); fill-rule: nonzero; opacity: 1;" vector-effect="non-scaling-stroke"  transform=" translate(-512, -320)" d="M 0 0 L 1024 0 L 1024 640 L 0 640 L 0 0 z" stroke-linecap="round" />
</g>
		<g transform="matrix(1 0 0 1 -0.06 -0.99)"  >
<path style="stroke: none; stroke-width: 1; stroke-dasharray: none; stroke-linecap: butt; stroke-dashoffset: 0; stroke-linejoin: miter; stroke-miterlimit: 4; fill: rgb(26,153,245); fill-rule: nonzero; opacity: 1;" vector-effect="non-scaling-stroke"  transform=" translate(-511.94, -319.01)" d="M 304.198 128.71 L 306.55199999999996 128.69 C 309.09799999999996 128.67 311.645 128.666 314.19199999999995 128.664 L 319.56499999999994 128.64399999999998 C 323.31499999999994 128.63199999999998 327.06399999999996 128.628 330.81399999999996 128.629 C 335.57899999999995 128.629 340.34399999999994 128.602 345.10799999999995 128.56799999999998 C 348.80799999999994 128.545 352.5079999999999 128.54199999999997 356.20899999999995 128.54299999999998 C 357.96399999999994 128.54 359.71899999999994 128.53199999999998 361.47299999999996 128.516 C 381.60099999999994 128.35299999999998 398.53299999999996 132.47899999999998 413.602 146.793 C 425.94 158.147 440.392 163.496 457.017 163.358 L 460.569 163.366 C 463.796 163.369 467.022 163.36 470.249 163.34500000000003 C 473.73900000000003 163.33200000000002 477.22900000000004 163.33600000000004 480.71900000000005 163.33900000000003 C 486.76000000000005 163.34100000000004 492.80100000000004 163.33300000000003 498.84200000000004 163.31900000000002 C 507.58900000000006 163.299 516.336 163.30100000000002 525.082 163.30900000000003 C 539.293 163.324 553.504 163.32900000000004 567.715 163.324 L 570.289 163.324 C 582.343 163.31900000000002 594.398 163.305 606.452 163.28900000000002 L 609.024 163.28500000000003 L 611.594 163.28100000000003 C 625.7510000000001 163.26200000000003 639.908 163.26600000000005 654.065 163.28800000000004 C 662.7850000000001 163.30100000000004 671.5060000000001 163.29500000000004 680.2270000000001 163.26400000000004 C 686.2060000000001 163.24400000000003 692.1850000000001 163.24500000000003 698.1640000000001 163.26400000000004 C 701.6090000000002 163.27400000000003 705.0530000000001 163.27400000000003 708.4970000000001 163.24800000000005 C 712.2420000000001 163.22400000000005 715.984 163.23800000000006 719.729 163.26100000000005 L 722.986 163.21300000000005 C 732.8629999999999 163.34500000000006 742.1659999999999 167.35000000000005 749.4689999999999 174.09800000000004 C 755.0659999999999 181.05200000000005 758.121 189.16800000000003 758.1289999999999 198.04100000000005 L 758.1389999999999 201.06300000000005 L 758.1339999999999 204.36000000000004 L 758.1409999999998 207.88000000000005 C 758.1459999999998 211.10200000000006 758.1469999999998 214.32200000000006 758.1449999999999 217.54300000000006 C 758.1449999999999 221.01800000000006 758.1509999999998 224.49300000000005 758.1549999999999 227.96900000000005 C 758.1639999999999 234.77600000000004 758.1659999999998 241.58400000000006 758.1669999999998 248.39200000000005 C 758.1669999999998 253.92600000000004 758.1699999999998 259.46200000000005 758.1729999999998 264.99600000000004 C 758.1819999999998 280.69200000000006 758.1859999999998 296.38800000000003 758.1849999999997 312.08400000000006 L 758.1849999999997 317.21500000000003 C 758.1849999999997 330.94000000000005 758.1949999999997 344.665 758.2079999999997 358.391 C 758.2229999999997 372.488 758.2299999999998 386.58500000000004 758.2279999999997 400.682 C 758.2279999999997 408.595 758.2309999999998 416.50800000000004 758.2419999999997 424.42 C 758.2519999999997 431.158 758.2529999999997 437.896 758.2469999999997 444.634 C 758.2429999999997 448.07 758.2429999999997 451.50600000000003 758.2519999999997 454.942 C 758.2599999999998 458.672 758.2549999999998 462.402 758.2469999999997 466.132 L 758.2629999999997 469.402 C 758.2129999999997 480.15 756.5209999999997 490.683 749.2109999999997 499.04699999999997 C 741.9939999999997 505.775 733.6209999999996 509.155 723.8209999999997 509.13399999999996 L 721.5799999999997 509.14099999999996 C 719.0819999999997 509.14799999999997 716.5829999999997 509.14799999999997 714.0849999999997 509.14699999999993 L 708.6809999999997 509.15799999999996 C 703.7149999999997 509.16799999999995 698.7489999999997 509.17199999999997 693.7829999999997 509.17499999999995 C 688.4329999999997 509.179 683.0829999999996 509.18799999999993 677.7329999999997 509.19699999999995 C 664.8049999999997 509.2169999999999 651.8759999999997 509.2269999999999 638.9469999999997 509.23599999999993 L 620.6879999999996 509.2509999999999 C 595.206671719745 509.27342080386956 569.7253372065924 509.28808747120974 544.2440000000113 509.29499999999433 L 540.2889999999996 509.2969999999999 C 519.1439999999997 509.3049999999999 497.9989999999996 509.3299999999999 476.85599999999965 509.3629999999999 C 455.1529999999997 509.3959999999999 433.4509999999997 509.4129999999999 411.7489999999997 509.41699999999986 C 399.56199999999967 509.41899999999987 387.37499999999966 509.42699999999985 375.18699999999967 509.45299999999986 C 364.8069999999997 509.47499999999985 354.4269999999997 509.48299999999983 344.0469999999997 509.47299999999984 C 338.75166062180875 509.4666959081582 333.456313757796 509.4723625893047 328.1609999999968 509.4900000000001 C 323.31099999999964 509.5079999999998 318.45899999999966 509.50699999999983 313.60799999999966 509.4909999999998 C 311.85599999999965 509.4889999999998 310.1049999999997 509.4929999999998 308.35299999999967 509.5049999999998 C 295.62099999999964 509.58599999999984 284.61099999999965 508.6299999999998 275.01199999999966 499.4099999999998 C 266.2319999999997 488.8919999999998 265.8499999999997 478.1499999999998 265.8599999999997 465.1219999999998 L 265.8499999999997 461.1799999999998 C 265.8429999999997 457.57999999999976 265.8399999999997 453.9799999999998 265.8399999999997 450.37999999999977 C 265.8379999999997 446.49299999999977 265.8299999999997 442.60599999999977 265.82399999999967 438.71899999999977 C 265.80999999999966 430.2249999999998 265.8039999999997 421.73099999999977 265.79999999999967 413.23699999999974 C 265.7969999999997 407.93099999999976 265.79299999999967 402.62399999999974 265.78799999999967 397.31799999999976 C 265.77599999999967 382.61799999999977 265.7659999999997 367.9179999999998 265.76199999999966 353.21799999999973 L 265.76199999999966 350.3679999999997 L 265.76199999999966 347.5129999999997 L 265.75999999999965 341.7849999999997 L 265.75999999999965 338.9149999999997 C 265.75499999999965 323.5679999999997 265.73799999999966 308.22099999999966 265.71399999999966 292.8739999999997 C 265.69099999999963 277.10599999999965 265.67799999999966 261.33899999999966 265.6769999999997 245.5719999999997 C 265.6769999999997 236.7229999999997 265.6699999999997 227.8749999999997 265.6519999999997 219.0269999999997 C 265.6369999999997 211.4919999999997 265.6319999999997 203.9579999999997 265.6399999999997 196.4239999999997 C 265.6439999999997 192.58199999999968 265.6429999999997 188.7409999999997 265.6289999999997 184.8999999999997 C 265.6139999999997 180.7279999999997 265.6219999999997 176.55799999999968 265.6329999999997 172.38599999999968 L 265.6079999999997 168.73599999999968 C 265.6799999999997 156.47799999999967 267.89799999999974 147.03899999999967 276.7339999999997 138.28099999999966 C 284.7239999999997 131.06899999999968 293.5959999999997 128.69599999999966 304.1979999999997 128.70899999999966 z" stroke-linecap="round" />
</g>
		<g transform="matrix(1 0 0 1 -0.13 -16.74)"  >
<path style="stroke: none; stroke-width: 1; stroke-dasharray: none; stroke-linecap: butt; stroke-dashoffset: 0; stroke-linejoin: miter; stroke-miterlimit: 4; fill: rgb(29,170,247); fill-rule: nonzero; opacity: 1;" vector-effect="non-scaling-stroke"  transform=" translate(-511.87, -303.26)" d="M 304.198 128.71 L 306.55199999999996 128.69 C 309.09799999999996 128.67 311.645 128.666 314.19199999999995 128.664 L 319.56499999999994 128.64399999999998 C 323.31499999999994 128.63199999999998 327.06399999999996 128.628 330.81399999999996 128.629 C 335.57899999999995 128.629 340.34399999999994 128.602 345.10799999999995 128.56799999999998 C 348.80799999999994 128.545 352.5079999999999 128.54199999999997 356.20899999999995 128.54299999999998 C 357.96399999999994 128.54 359.71899999999994 128.53199999999998 361.47299999999996 128.516 C 381.60099999999994 128.35299999999998 398.53299999999996 132.47899999999998 413.602 146.793 C 425.94 158.147 440.392 163.496 457.017 163.358 L 460.569 163.366 C 463.796 163.369 467.022 163.36 470.249 163.34500000000003 C 473.73900000000003 163.33200000000002 477.22900000000004 163.33600000000004 480.71900000000005 163.33900000000003 C 486.76000000000005 163.34100000000004 492.80100000000004 163.33300000000003 498.84200000000004 163.31900000000002 C 507.58900000000006 163.299 516.336 163.30100000000002 525.082 163.30900000000003 C 539.293 163.324 553.504 163.32900000000004 567.715 163.324 L 570.289 163.324 C 582.343 163.31900000000002 594.398 163.305 606.452 163.28900000000002 L 609.024 163.28500000000003 L 611.594 163.28100000000003 C 625.7510000000001 163.26200000000003 639.908 163.26600000000005 654.065 163.28800000000004 C 662.7850000000001 163.30100000000004 671.5060000000001 163.29500000000004 680.2270000000001 163.26400000000004 C 686.2060000000001 163.24400000000003 692.1850000000001 163.24500000000003 698.1640000000001 163.26400000000004 C 701.6090000000002 163.27400000000003 705.0530000000001 163.27400000000003 708.4970000000001 163.24800000000005 C 712.2420000000001 163.22400000000005 715.984 163.23800000000006 719.729 163.26100000000005 L 722.986 163.21300000000005 C 732.8629999999999 163.34500000000006 742.1659999999999 167.35000000000005 749.4689999999999 174.09800000000004 C 755.074 181.06100000000004 758.127 189.18200000000004 758.1229999999999 198.06600000000003 L 758.1289999999999 201.10500000000002 L 758.1199999999999 204.42100000000002 L 758.1229999999999 207.961 C 758.1239999999999 211.199 758.121 214.437 758.116 217.675 C 758.112 221.169 758.1129999999999 224.662 758.114 228.155 C 758.114 234.207 758.111 240.258 758.106 246.309 C 758.098 255.059 758.095 263.808 758.094 272.557 C 758.0920000000001 286.752 758.0840000000001 300.947 758.075 315.142 C 758.066 328.932 758.0590000000001 342.71999999999997 758.0550000000001 356.51 L 758.0550000000001 359.085 L 758.0500000000001 371.878 C 758.0400000000001 407.252 758.022 442.626 758.0000000000001 478 L 757.0000000000001 478 L 757.0000000000001 476.34 C 756.9864453623708 439.9752904572619 756.9354453353269 403.6106045115008 756.8469999999944 367.2459999999904 L 756.8420000000001 364.894 C 756.8160000000001 352.327 756.8070000000001 339.76 756.8040000000001 327.194 C 756.801 314.3 756.7790000000001 301.40700000000004 756.739 288.514 C 756.716 280.556 756.707 272.6 756.716 264.64300000000003 C 756.722 258.543 756.702 252.44300000000004 756.672 246.34300000000002 C 756.664 243.84000000000003 756.664 241.336 756.673 238.83300000000003 C 756.685 235.41900000000004 756.666 232.00600000000003 756.639 228.59300000000002 L 756.672 225.579 C 756.606 221.131 756.466 217.971 753.648 214.4 C 749.436 210.582 745.679 210.853 740.282 210.857 L 737.864 210.847 C 735.167 210.83700000000002 732.471 210.835 729.774 210.833 L 723.943 210.815 C 718.583 210.799 713.2239999999999 210.79 707.865 210.781 C 703.272 210.773 698.6800000000001 210.761 694.088 210.75 C 676.3273538076002 210.70652844958508 658.5666842473779 210.67319511082252 640.806000000026 210.65000000000146 C 609.3883498058289 210.6003655311175 577.9706804628673 210.56369886134138 546.5529999999852 210.54000000001398 L 544.4209999999999 210.53799999999998 C 521.6039999999999 210.51799999999997 498.7869999999999 210.47099999999998 475.9699999999999 210.41099999999997 C 451.8509999999999 210.34799999999998 427.7329999999999 210.31099999999998 403.6139999999999 210.30099999999996 C 390.46399999999994 210.29499999999996 377.3159999999999 210.27699999999996 364.1669999999999 210.22899999999996 C 352.97038504235735 210.18731860152178 341.7736849765609 210.17298522543405 330.57700000000074 210.1860000000012 C 324.8629999999999 210.19199999999995 319.1489999999999 210.18799999999996 313.43399999999986 210.15199999999996 C 308.20399999999984 210.11999999999995 302.9739999999999 210.11999999999995 297.74399999999986 210.14599999999996 C 295.8509999999999 210.14999999999995 293.95799999999986 210.14099999999996 292.06399999999985 210.11999999999995 C 280.8919999999998 209.68599999999995 280.8919999999998 209.68599999999995 270.88399999999984 213.88399999999996 C 266.93399999999986 218.37099999999995 266.88699999999983 222.95399999999995 266.99999999999983 228.71199999999996 L 266.9669999999998 231.94799999999995 C 266.9399999999998 235.51999999999995 266.9699999999998 239.08999999999995 266.99999999999983 242.66199999999995 C 266.99199999999985 245.22399999999996 266.9809999999998 247.78699999999995 266.9669999999998 250.34999999999994 C 266.9439999999998 255.86399999999995 266.9449999999998 261.37699999999995 266.9689999999998 266.89099999999996 C 267.0029999999998 274.86299999999994 266.9929999999998 282.835 266.97299999999984 290.80699999999996 C 266.9399999999998 303.74199999999996 266.94299999999987 316.67699999999996 266.9689999999998 329.61199999999997 C 266.9939999999998 342.17499999999995 267.00199999999984 354.73799999999994 266.98799999999983 367.301 L 266.98499999999984 369.64799999999997 L 266.97099999999983 381.30899999999997 C 266.92899999999986 413.539 266.94599999999986 445.76899999999995 266.99999999999983 478 L 265.99999999999983 478 C 265.9218470229386 432.77103111785334 265.86684701575325 387.5420251917974 265.8350000000208 342.3130000000292 L 265.8329999999998 339.431 C 265.8199999999998 324.038 265.7959999999998 308.645 265.7689999999998 293.253 C 265.74100619280506 277.4540137420586 265.7240061886752 261.6550099170102 265.71799999998575 245.8560000000072 C 265.71399999999977 236.111 265.7009999999998 226.36599999999999 265.6759999999998 216.62 C 265.6599999999998 209.933 265.65599999999984 203.247 265.6589999999998 196.56 C 265.66099999999983 192.705 265.6589999999998 188.85 265.6419999999998 184.994 C 265.6282188672109 180.80734614077508 265.62721886255133 176.62065996486356 265.6390000000001 172.43400000000082 L 265.61299999999983 168.769 C 265.67699999999985 156.496 267.88599999999985 147.049 276.7339999999998 138.281 C 284.7239999999998 131.06900000000002 293.59599999999983 128.696 304.1979999999998 128.709 z" stroke-linecap="round" />
</g>
		<g transform="matrix(1 0 0 1 0.08 -120.27)"  >
<path style="stroke: none; stroke-width: 1; stroke-dasharray: none; stroke-linecap: butt; stroke-dashoffset: 0; stroke-linejoin: miter; stroke-miterlimit: 4; fill: rgb(250,253,254); fill-rule: nonzero; opacity: 1;" vector-effect="non-scaling-stroke"  transform=" translate(-512.08, -199.73)" d="M 304.416 190.62 L 306.624 190.606 C 309.06800000000004 190.594 311.511 190.603 313.954 190.612 C 315.724 190.608 317.492 190.602 319.261 190.596 C 324.124 190.582 328.98600000000005 190.586 333.848 190.59300000000002 C 339.092 190.598 344.33500000000004 190.585 349.57800000000003 190.57500000000002 C 359.85100000000006 190.55800000000002 370.124 190.55700000000002 380.398 190.562 C 388.74600000000004 190.566 397.095 190.565 405.444 190.56 L 409.04200000000003 190.55700000000002 L 416.27900000000005 190.55300000000003 C 438.9100000000001 190.53900000000002 461.54200000000003 190.54400000000004 484.17300000000006 190.556 C 504.88300000000004 190.566 525.5930000000001 190.55300000000003 546.3030000000001 190.52900000000002 C 567.5600000000001 190.50500000000002 588.8180000000001 190.49500000000003 610.0760000000001 190.50200000000004 C 622.0140000000001 190.50500000000002 633.9510000000001 190.50200000000004 645.8890000000001 190.48500000000004 C 656.051328028963 190.469588947355 666.2136740804849 190.4702556148564 676.3759999999953 190.48700000000045 C 681.5620000000001 190.49600000000004 686.7470000000001 190.49800000000005 691.9330000000001 190.48300000000006 C 696.6800000000001 190.46900000000005 701.4270000000001 190.47300000000007 706.1740000000001 190.49300000000005 C 707.892 190.49700000000004 709.609 190.49300000000005 711.3260000000001 190.48300000000006 C 727.3280000000001 190.39300000000006 727.3280000000001 190.39300000000006 734.0000000000001 195.00000000000006 C 738.2050000000002 199.59900000000005 737.0000000000001 202.04000000000005 737.0000000000001 209.00000000000006 L 287 209.00000000000006 C 287 198.42100000000005 287 198.42100000000005 291 194.00000000000006 C 295.604 191.18700000000007 299.058 190.62400000000005 304.416 190.62000000000006 z" stroke-linecap="round" />
</g>
</g>
</g>
</svg>